<?xml version="1.0" encoding="UTF-8" standalone="no"?>
<!-- Created with Inkscape (http://www.inkscape.org/) -->

<svg
   width="45.680737mm"
   height="27.69492mm"
   viewBox="0 0 45.680737 27.69492"
   version="1.1"
   id="svg1"
   xml:space="preserve"
   xmlns="http://www.w3.org/2000/svg"
   xmlns:svg="http://www.w3.org/2000/svg"><defs
     id="defs1" /><g
     id="layer1"
     transform="translate(-144.15276,-171.33799)"><g
       id="g15"
       transform="translate(-7.0778459,9.8915643)"><path
         style="fill:#f4a439"
         d="m 158.0176,188.98349 c -3.94586,-0.97985 -6.79756,-4.65838 -6.78696,-8.75477 0.0119,-4.58733 2.93651,-7.82734 7.98009,-8.84059 0.52144,-0.10475 0.83093,-0.51665 1.44178,-1.91881 0.54266,-1.24564 1.3195,-2.35568 2.56952,-3.67163 2.82634,-2.97539 6.03667,-4.34524 10.19747,-4.35125 4.51806,-0.007 8.57517,2.0771 11.3169,5.81209 0.89777,1.22301 0.96428,1.25899 2.57949,1.39538 3.78311,0.31944 7.04758,2.55193 8.73088,5.97082 0.79324,1.61113 0.86458,1.96429 0.86458,4.27996 0,2.32001 -0.0705,2.66718 -0.8723,4.29675 -1.10769,2.2512 -2.76605,3.91002 -5.01713,5.01852 l -1.77142,0.8723 -15.21958,0.0442 c -8.37076,0.0243 -15.57676,-0.0445 -16.01332,-0.15294 z m 32.46506,-2.21966 c 5.25743,-2.58175 6.58968,-9.32399 2.69776,-13.65274 -1.64339,-1.82785 -3.52545,-2.703 -6.25251,-2.9074 l -2.1539,-0.16143 -0.99814,-1.45521 c -1.40386,-2.04673 -2.95367,-3.36488 -5.24384,-4.46 -1.732,-0.82821 -2.28058,-0.95784 -4.45629,-1.053 -3.06226,-0.13393 -5.24457,0.39597 -7.40068,1.79701 -2.0792,1.35107 -3.66013,3.15817 -4.59815,5.25597 -0.43463,0.97202 -0.88193,1.94276 -0.994,2.15721 -0.11207,0.21444 -0.93313,0.53752 -1.82459,0.71794 -2.00614,0.40604 -3.37197,1.09379 -4.45335,2.24241 -3.76112,3.99504 -2.22927,10.12677 3.00167,12.01516 0.81429,0.29396 3.86304,0.35155 16.08596,0.30385 l 15.08125,-0.0588 z m -20.10857,-2.83681 c -2.17217,-0.56908 -4.73515,-1.84144 -5.63175,-2.79582 -0.78003,-0.8303 -0.51441,-1.05671 0.57738,-0.49213 4.32855,2.23839 10.16619,2.67402 15.12683,1.12883 0.9853,-0.30691 1.86547,-0.484 1.95593,-0.39354 0.30994,0.30994 -0.57272,1.05673 -1.99211,1.68549 -3.27397,1.45028 -6.68542,1.74504 -10.03628,0.86717 z m 12.79275,-1.97851 0.17855,-1.19063 -0.88994,-0.004 c -0.48946,-0.002 -1.05485,-0.10849 -1.25641,-0.23614 -0.5459,-0.34573 0.47723,-0.81814 1.77189,-0.81814 1.3026,0 1.70393,0.43258 1.39635,1.50507 -0.60722,2.11726 -1.48826,2.66322 -1.20044,0.74389 z m -16.72667,-3.48368 c 0.097,-0.097 0.25576,-0.097 0.35277,0 0.097,0.097 0.0176,0.17639 -0.17638,0.17639 -0.19403,0 -0.27341,-0.0794 -0.17639,-0.17639 z m 14.1993,0.0441 c 0,-0.0728 0.0595,-0.13229 0.13229,-0.13229 0.0728,0 0.1323,0.0595 0.1323,0.13229 0,0.0728 -0.0595,0.1323 -0.1323,0.1323 -0.0728,0 -0.13229,-0.0595 -0.13229,-0.1323 z m 0.79375,0 c 0,-0.0728 0.0595,-0.13229 0.13229,-0.13229 0.0728,0 0.1323,0.0595 0.1323,0.13229 0,0.0728 -0.0595,0.1323 -0.1323,0.1323 -0.0728,0 -0.13229,-0.0595 -0.13229,-0.1323 z m -12.17083,-0.26458 c 0,-0.0728 0.0595,-0.13229 0.13229,-0.13229 0.0728,0 0.13229,0.0595 0.13229,0.13229 0,0.0728 -0.0595,0.13229 -0.13229,0.13229 -0.0728,0 -0.13229,-0.0595 -0.13229,-0.13229 z m 2.91042,0 c 0,-0.0728 0.0595,-0.13229 0.13229,-0.13229 0.0728,0 0.13229,0.0595 0.13229,0.13229 0,0.0728 -0.0595,0.13229 -0.13229,0.13229 -0.0728,0 -0.13229,-0.0595 -0.13229,-0.13229 z m 0.79375,0 c 0,-0.0728 0.0595,-0.13229 0.13229,-0.13229 0.0728,0 0.13229,0.0595 0.13229,0.13229 0,0.0728 -0.0595,0.13229 -0.13229,0.13229 -0.0728,0 -0.13229,-0.0595 -0.13229,-0.13229 z m -1.32292,-0.79375 c 0,-0.0728 0.0595,-0.13229 0.13229,-0.13229 0.0728,0 0.13229,0.0595 0.13229,0.13229 0,0.0728 -0.0595,0.13229 -0.13229,0.13229 -0.0728,0 -0.13229,-0.0595 -0.13229,-0.13229 z m 11.64167,0 c 0,-0.0728 0.0595,-0.13229 0.13229,-0.13229 0.0728,0 0.13229,0.0595 0.13229,0.13229 0,0.0728 -0.0595,0.13229 -0.13229,0.13229 -0.0728,0 -0.13229,-0.0595 -0.13229,-0.13229 z m -15.61042,-0.26458 c 0,-0.0728 0.0595,-0.13229 0.13229,-0.13229 0.0728,0 0.13229,0.0595 0.13229,0.13229 0,0.0728 -0.0595,0.13229 -0.13229,0.13229 -0.0728,0 -0.13229,-0.0595 -0.13229,-0.13229 z m 11.72986,-0.0441 c 0.097,-0.097 0.25576,-0.097 0.35278,0 0.097,0.097 0.0176,0.17639 -0.17639,0.17639 -0.19403,0 -0.2734,-0.0794 -0.17639,-0.17639 z m -8.02569,-0.48507 c 0,-0.0728 0.0595,-0.13229 0.13229,-0.13229 0.0728,0 0.13229,0.0595 0.13229,0.13229 0,0.0728 -0.0595,0.13229 -0.13229,0.13229 -0.0728,0 -0.13229,-0.0595 -0.13229,-0.13229 z m -3.175,-0.79375 c 0,-0.0728 0.0595,-0.13229 0.13229,-0.13229 0.0728,0 0.13229,0.0595 0.13229,0.13229 0,0.0728 -0.0595,0.13229 -0.13229,0.13229 -0.0728,0 -0.13229,-0.0595 -0.13229,-0.13229 z m 4.23333,0 c 0,-0.0728 0.0595,-0.13229 0.13229,-0.13229 0.0728,0 0.13229,0.0595 0.13229,0.13229 0,0.0728 -0.0595,0.13229 -0.13229,0.13229 -0.0728,0 -0.13229,-0.0595 -0.13229,-0.13229 z m -5.02708,-0.26458 c 0,-0.0728 0.0595,-0.13229 0.13229,-0.13229 0.0728,0 0.13229,0.0595 0.13229,0.13229 0,0.0728 -0.0595,0.13229 -0.13229,0.13229 -0.0728,0 -0.13229,-0.0595 -0.13229,-0.13229 z m -2.38125,-0.26459 c 0,-0.0728 0.0595,-0.13229 0.13229,-0.13229 0.0728,0 0.13229,0.0595 0.13229,0.13229 0,0.0728 -0.0595,0.1323 -0.13229,0.1323 -0.0728,0 -0.13229,-0.0595 -0.13229,-0.1323 z m 7.14375,-0.26458 c 0,-0.0728 0.0595,-0.13229 0.13229,-0.13229 0.0728,0 0.13229,0.0595 0.13229,0.13229 0,0.0728 -0.0595,0.13229 -0.13229,0.13229 -0.0728,0 -0.13229,-0.0595 -0.13229,-0.13229 z m 0.79375,0 c 0,-0.0728 0.0595,-0.13229 0.13229,-0.13229 0.0728,0 0.13229,0.0595 0.13229,0.13229 0,0.0728 -0.0595,0.13229 -0.13229,0.13229 -0.0728,0 -0.13229,-0.0595 -0.13229,-0.13229 z m 1.05833,0 c 0,-0.0728 0.0595,-0.13229 0.13229,-0.13229 0.0728,0 0.13229,0.0595 0.13229,0.13229 0,0.0728 -0.0595,0.13229 -0.13229,0.13229 -0.0728,0 -0.13229,-0.0595 -0.13229,-0.13229 z m -8.20208,-0.26458 c 0,-0.0728 0.0595,-0.13229 0.13229,-0.13229 0.0728,0 0.13229,0.0595 0.13229,0.13229 0,0.0728 -0.0595,0.13229 -0.13229,0.13229 -0.0728,0 -0.13229,-0.0595 -0.13229,-0.13229 z m 13.49375,0 c 0,-0.0728 0.0595,-0.13229 0.13229,-0.13229 0.0728,0 0.13229,0.0595 0.13229,0.13229 0,0.0728 -0.0595,0.13229 -0.13229,0.13229 -0.0728,0 -0.13229,-0.0595 -0.13229,-0.13229 z m -1.32292,-0.52917 c 0,-0.0728 0.0595,-0.13229 0.13229,-0.13229 0.0728,0 0.13229,0.0595 0.13229,0.13229 0,0.0728 -0.0595,0.13229 -0.13229,0.13229 -0.0728,0 -0.13229,-0.0595 -0.13229,-0.13229 z m 1.05833,0 c 0,-0.0728 0.0595,-0.13229 0.13229,-0.13229 0.0728,0 0.1323,0.0595 0.1323,0.13229 0,0.0728 -0.0595,0.13229 -0.1323,0.13229 -0.0728,0 -0.13229,-0.0595 -0.13229,-0.13229 z m -8.46666,-0.26458 c 0,-0.0728 0.0595,-0.13229 0.13229,-0.13229 0.0728,0 0.13229,0.0595 0.13229,0.13229 0,0.0728 -0.0595,0.13229 -0.13229,0.13229 -0.0728,0 -0.13229,-0.0595 -0.13229,-0.13229 z m -2.38125,-0.26459 c 0,-0.0728 0.0595,-0.13229 0.13229,-0.13229 0.0728,0 0.13229,0.0595 0.13229,0.13229 0,0.0728 -0.0595,0.1323 -0.13229,0.1323 -0.0728,0 -0.13229,-0.0595 -0.13229,-0.1323 z m 1.32291,-0.26458 c 0,-0.0728 0.0595,-0.13229 0.13229,-0.13229 0.0728,0 0.1323,0.0595 0.1323,0.13229 0,0.0728 -0.0595,0.13229 -0.1323,0.13229 -0.0728,0 -0.13229,-0.0595 -0.13229,-0.13229 z m 7.40834,0 c 0,-0.0728 0.0595,-0.13229 0.13229,-0.13229 0.0728,0 0.13229,0.0595 0.13229,0.13229 0,0.0728 -0.0595,0.13229 -0.13229,0.13229 -0.0728,0 -0.13229,-0.0595 -0.13229,-0.13229 z m 1.32291,0 c 0,-0.0728 0.0595,-0.13229 0.13229,-0.13229 0.0728,0 0.1323,0.0595 0.1323,0.13229 0,0.0728 -0.0595,0.13229 -0.1323,0.13229 -0.0728,0 -0.13229,-0.0595 -0.13229,-0.13229 z m 2.24896,-0.13229 c 0.0899,-0.14552 0.22305,-0.26458 0.29581,-0.26458 0.0728,0 0.0587,0.11906 -0.0312,0.26458 -0.0899,0.14552 -0.22305,0.26458 -0.29581,0.26458 -0.0728,0 -0.0587,-0.11906 0.0312,-0.26458 z m 2.07257,-0.17639 c 0.097,-0.097 0.25576,-0.097 0.35278,0 0.097,0.097 0.0176,0.17639 -0.17639,0.17639 -0.19403,0 -0.2734,-0.0794 -0.17639,-0.17639 z m -17.55069,-0.22049 c 0,-0.0728 0.0595,-0.13229 0.13229,-0.13229 0.0728,0 0.13229,0.0595 0.13229,0.13229 0,0.0728 -0.0595,0.1323 -0.13229,0.1323 -0.0728,0 -0.13229,-0.0595 -0.13229,-0.1323 z m 6.61458,0 c 0,-0.0728 0.0595,-0.13229 0.13229,-0.13229 0.0728,0 0.13229,0.0595 0.13229,0.13229 0,0.0728 -0.0595,0.1323 -0.13229,0.1323 -0.0728,0 -0.13229,-0.0595 -0.13229,-0.1323 z m -0.26458,-0.52916 c 0,-0.0728 0.0595,-0.13229 0.13229,-0.13229 0.0728,0 0.13229,0.0595 0.13229,0.13229 0,0.0728 -0.0595,0.13229 -0.13229,0.13229 -0.0728,0 -0.13229,-0.0595 -0.13229,-0.13229 z m -5.55625,-0.26459 c 0,-0.0728 0.0595,-0.13229 0.13229,-0.13229 0.0728,0 0.13229,0.0595 0.13229,0.13229 0,0.0728 -0.0595,0.1323 -0.13229,0.1323 -0.0728,0 -0.13229,-0.0595 -0.13229,-0.1323 z m 4.7625,0 c 0,-0.0728 0.0595,-0.13229 0.13229,-0.13229 0.0728,0 0.13229,0.0595 0.13229,0.13229 0,0.0728 -0.0595,0.1323 -0.13229,0.1323 -0.0728,0 -0.13229,-0.0595 -0.13229,-0.1323 z m 3.43958,0 c 0,-0.0728 0.0595,-0.13229 0.13229,-0.13229 0.0728,0 0.13229,0.0595 0.13229,0.13229 0,0.0728 -0.0595,0.1323 -0.13229,0.1323 -0.0728,0 -0.13229,-0.0595 -0.13229,-0.1323 z m 0.52917,0 c 0,-0.0728 0.0595,-0.13229 0.13229,-0.13229 0.0728,0 0.13229,0.0595 0.13229,0.13229 0,0.0728 -0.0595,0.1323 -0.13229,0.1323 -0.0728,0 -0.13229,-0.0595 -0.13229,-0.1323 z"
         id="path16" /><path
         style="fill:#f2f2ff;fill-opacity:1"
         d="m 180.37489,178.44642 c -0.71801,-0.13079 -1.32292,-0.53442 -1.32292,-0.88273 0,-0.12044 0.68345,-0.25469 1.51879,-0.29833 1.20605,-0.063 1.53716,-0.17595 1.60807,-0.54849 0.0661,-0.34716 -0.25449,-0.612 -1.23307,-1.01868 -2.74911,-1.14248 -2.2795,-3.67156 0.68174,-3.67156 0.94594,0 1.65781,0.35762 1.65781,0.83284 0,0.10881 -0.62508,0.23383 -1.38907,0.27781 -1.73794,0.10006 -1.85496,0.64735 -0.29997,1.40289 1.57014,0.7629 1.95362,1.15878 1.95362,2.01678 0,0.80338 -0.80066,1.81968 -1.43357,1.81968 -0.20638,0 -0.5338,0.0428 -0.7276,0.0951 -0.19381,0.0523 -0.65003,0.0409 -1.01383,-0.0254 z m -15.1528,-0.53183 c -1.20708,-1.33382 -0.049,-3.24212 1.96762,-3.24212 1.14716,0 1.56857,-0.52283 0.9866,-1.22406 -0.26957,-0.32482 -0.64659,-0.38862 -1.6171,-0.27368 -1.10598,0.13099 -1.26557,0.0886 -1.26557,-0.33596 0,-0.5334 0.68915,-0.80285 2.06791,-0.80853 1.89962,-0.008 2.33447,0.6709 2.46624,3.84937 l 0.0871,2.10015 -0.92154,0.0673 c -0.50685,0.037 -1.45976,0.13614 -2.11757,0.22025 -0.96741,0.12369 -1.2835,0.0563 -1.65365,-0.35274 z m 2.97266,-1.10806 c 0.40076,-0.74884 0.34014,-0.99669 -0.28367,-1.15982 -1.17794,-0.30804 -2.36924,0.77327 -1.6473,1.4952 0.38623,0.38623 1.6635,0.16439 1.93097,-0.33538 z m 4.07176,1.36761 c -0.16675,-0.10691 -0.68644,-1.42906 -1.15489,-2.9381 -0.69731,-2.24634 -0.78624,-2.78565 -0.49057,-2.97504 0.54748,-0.35069 1.13857,0.53621 1.5335,2.30094 0.30192,1.34911 0.38636,1.4825 0.68232,1.07774 0.18577,-0.25405 0.41709,-0.9909 0.51405,-1.63744 0.38115,-2.54174 1.70928,-2.46097 2.26071,0.13748 0.18751,0.88361 0.4341,1.66414 0.54796,1.73452 0.11386,0.0704 0.39672,-0.5582 0.62857,-1.39681 0.48561,-1.75646 0.72261,-2.24574 1.1581,-2.39091 0.65693,-0.21897 0.59473,0.80759 -0.20486,3.3813 -1.12046,3.60651 -1.9576,3.84999 -2.72357,0.79215 -0.20049,-0.80037 -0.47217,-1.4313 -0.60373,-1.40208 -0.13157,0.0292 -0.39482,0.7383 -0.58501,1.57573 -0.39254,1.7284 -0.8269,2.21222 -1.56258,1.74052 z"
         id="path15" /></g></g></svg>
