<?xml version="1.0" encoding="UTF-8" standalone="no"?>
<!-- Created with Inkscape (http://www.inkscape.org/) -->

<svg
   width="72.756599mm"
   height="39.408966mm"
   viewBox="0 0 72.756599 39.408966"
   version="1.1"
   id="svg1"
   xml:space="preserve"
   xmlns="http://www.w3.org/2000/svg"
   xmlns:svg="http://www.w3.org/2000/svg"><defs
     id="defs1" /><g
     id="layer1"
     transform="translate(-74.998049,-233.76829)"><g
       id="g9"
       transform="translate(-22.652542,64.182203)"><path
         style="fill:#01baef"
         d="m 106.21127,208.92572 c -1.32878,-0.19125 -2.9925,-0.85608 -4.21053,-1.68255 -2.119337,-1.43803 -3.712207,-3.86634 -4.218869,-6.43161 -0.175039,-0.88624 -0.175039,-2.95389 0,-3.84013 0.94145,-4.76663 5.144069,-8.2218 10.000389,-8.2218 h 0.71979 l 0.0694,-0.7631 c 0.14932,-1.64261 0.4637,-2.81412 1.09802,-4.09165 1.13382,-2.28352 3.05533,-4.05887 5.402,-4.99106 1.37742,-0.54717 2.30209,-0.72073 3.84178,-0.72108 1.73303,-4e-4 2.59864,0.17366 4.29475,0.86361 0.12535,0.051 0.18349,-0.0316 0.27322,-0.38793 0.39856,-1.58281 1.55317,-3.47499 3.00834,-4.93006 5.59596,-5.59561 15.5189,-5.50966 21.06397,0.18245 0.75895,0.77908 1.61461,2.0079 2.10503,3.02306 0.24855,0.51448 0.45985,0.94713 0.46957,0.96145 0.01,0.0143 0.26101,-0.0854 0.55843,-0.22154 1.43878,-0.6587 3.49469,-0.83965 5.06135,-0.44549 2.76253,0.69503 4.91483,2.7598 5.70025,5.46841 0.14319,0.49379 0.28227,1.27931 0.31529,1.78075 l 0.0591,0.89722 0.54109,0.17056 c 0.86242,0.27186 2.36264,1.08229 3.28372,1.7739 1.98056,1.48713 3.48502,3.59901 4.25278,5.96983 0.41172,1.27135 0.51034,2.00686 0.50697,3.78094 -0.003,1.50178 -0.0312,1.78251 -0.27542,2.73011 -0.5891,2.28555 -1.55093,4.01319 -3.11783,5.60028 -1.70205,1.72398 -3.57429,2.75755 -6.17195,3.40723 -0.62431,0.15614 -2.56368,0.1693 -27.35588,0.18564 -14.67616,0.01 -26.94979,-0.0207 -27.27472,-0.0674 z m 29.95652,-5.5161 c 0.23652,-0.1145 0.49931,-0.3139 0.58396,-0.44309 0.14508,-0.22142 0.41082,-0.34979 0.27748,-0.13404 -0.0343,0.0555 -0.0328,0.23514 0.003,0.39926 0.0601,0.27365 0.0954,0.29591 0.42577,0.26838 l 0.36024,-0.03 0.0262,-2.73813 0.0262,-2.73813 -0.42004,0.0303 -0.42004,0.0304 -0.0492,1.92006 c -0.0531,2.07235 -0.11978,2.35784 -0.62806,2.69088 -0.33942,0.2224 -0.93175,0.28371 -1.34124,0.13883 -0.25446,-0.09 -0.40259,-0.23687 -0.56617,-0.56127 -0.20691,-0.41031 -0.22154,-0.56482 -0.22154,-2.33854 v -1.8992 h -0.45156 -0.45155 l 0.0358,2.09238 c 0.0391,2.28454 0.0969,2.56348 0.63483,3.06551 0.52032,0.48556 1.46157,0.59216 2.17578,0.24642 z m 10.01844,-0.0309 c 0.4501,-0.18807 0.53968,-0.29913 0.54175,-0.6717 0.002,-0.32658 -0.0148,-0.32811 -0.58192,-0.0536 -0.60251,0.29167 -1.59744,0.30103 -2.08054,0.0196 -0.3791,-0.22086 -0.72621,-0.78685 -0.82456,-1.34451 l -0.0651,-0.36925 h 1.98647 1.98648 l -0.0673,-0.6154 c -0.10243,-0.93703 -0.2321,-1.32261 -0.57686,-1.71527 -1.02785,-1.17065 -2.96413,-0.89197 -3.74279,0.53867 -0.38441,0.7063 -0.50411,1.45847 -0.36416,2.28823 0.25372,1.50418 1.13613,2.2096 2.65963,2.12616 0.40713,-0.0223 0.91513,-0.11362 1.1289,-0.20294 z m -2.903,-3.30955 c 0,-0.32718 0.36636,-0.94773 0.6996,-1.18502 0.17395,-0.12387 0.51011,-0.23949 0.76533,-0.26323 0.75596,-0.0703 1.31735,0.43249 1.45927,1.30705 l 0.0555,0.34205 h -1.48985 c -1.43391,0 -1.48985,-0.008 -1.48985,-0.20085 z m -20.9456,2.34246 0.38859,-1.0585 h 1.64754 1.64754 l 0.39258,1.0585 0.39257,1.05849 0.45968,0.03 c 0.25282,0.0165 0.45991,-0.006 0.46021,-0.0492 2.9e-4,-0.0436 -0.65011,-1.77406 -1.44534,-3.84552 l -1.44587,-3.76627 h -0.45959 -0.45958 l -1.44288,3.77624 c -0.79358,2.07693 -1.44287,3.80742 -1.44287,3.84552 0,0.0381 0.20673,0.0558 0.45941,0.0393 l 0.45942,-0.03 z m 0.75725,-1.92006 c -0.006,-0.1332 1.22559,-3.47093 1.27964,-3.46921 0.0652,0.002 1.28445,3.24976 1.28391,3.41997 -2.9e-4,0.0921 -0.32224,0.12309 -1.28042,0.12309 -0.70403,0 -1.28143,-0.0332 -1.28313,-0.0739 z m 9.4557,2.63637 v -0.39142 l -1.57679,-0.0271 -1.57678,-0.0271 1.0043,-1.37851 c 1.81688,-2.49386 2.2462,-3.12292 2.19158,-3.21129 -0.0297,-0.048 -0.98181,-0.0873 -2.11588,-0.0873 h -2.06195 v 0.39386 0.39386 h 1.43594 c 0.78977,0 1.42118,0.0348 1.40312,0.0773 -0.018,0.0425 -0.73069,1.0358 -1.58364,2.20727 -0.85295,1.17148 -1.55082,2.20011 -1.55082,2.28584 0,0.13759 0.2601,0.15589 2.21546,0.15589 h 2.21546 z m 7.68024,-1.52865 c 0.0547,-2.07702 0.1254,-2.34456 0.71865,-2.71796 0.24308,-0.153 0.42228,-0.18687 0.78294,-0.14799 l 0.46771,0.0504 v -0.38734 c 0,-0.33466 -0.0347,-0.39605 -0.25509,-0.45137 -0.14029,-0.0352 -0.42419,-0.0134 -0.63089,0.0486 -0.39769,0.11915 -0.98485,0.69563 -0.98485,0.96694 0,0.0884 -0.0328,0.12789 -0.0729,0.0878 -0.0401,-0.0401 -0.0733,-0.28009 -0.0738,-0.53335 l -9.8e-4,-0.46048 -0.41848,-0.0303 -0.41847,-0.0303 v 2.69703 c 0,1.48337 0.0317,2.72868 0.0703,2.76736 0.0387,0.0387 0.22699,0.0571 0.41847,0.041 l 0.34815,-0.0293 z m 0.1737,-11.05266 -0.026,-3.12625 -3.52011,-0.0259 -3.52012,-0.0259 v 2.65979 c 0,1.46288 0.0332,2.66244 0.0738,2.66568 0.0406,0.003 1.55821,0.21954 3.37242,0.48066 1.81421,0.26113 3.37673,0.48002 3.47226,0.48644 0.16306,0.0109 0.1721,-0.17983 0.1477,-3.1146 z m -7.36162,-0.51852 v -2.66013 l -2.68316,0.0262 -2.68317,0.0262 -0.0264,2.23376 -0.0264,2.23377 0.4203,0.0614 c 0.23117,0.0338 1.43942,0.20889 2.685,0.38915 1.24558,0.18026 2.27576,0.3327 2.2893,0.33876 0.0135,0.006 0.0246,-1.18604 0.0246,-2.64911 z m 0,-5.46321 c 0,-1.43512 -0.0332,-2.60733 -0.0738,-2.60492 -0.0406,0.002 -1.24804,0.17067 -2.68316,0.37389 l -2.60932,0.36948 -0.0265,2.23544 -0.0265,2.23543 h 2.70963 2.70963 z m 7.38485,-0.49232 c 0,-2.41412 -0.0273,-3.10228 -0.12308,-3.10454 -0.0677,-0.002 -1.66282,0.20636 -3.54473,0.4621 l -3.42165,0.465 v 2.63954 2.63954 h 3.54473 3.54473 z"
         id="path9" /></g></g></svg>
