<?xml version="1.0" encoding="UTF-8" standalone="no"?>
<!-- Created with Inkscape (http://www.inkscape.org/) -->

<svg
   width="42.924809mm"
   height="64.396767mm"
   viewBox="0 0 42.924809 64.396767"
   version="1.1"
   id="svg1"
   xml:space="preserve"
   xmlns="http://www.w3.org/2000/svg"
   xmlns:svg="http://www.w3.org/2000/svg"><defs
     id="defs1" /><g
     id="layer1"
     transform="translate(-24.921776,-19.225368)"><g
       id="g17"
       transform="translate(-228.37681,-603.81764)"
       style="fill:#000000;fill-opacity:1;stroke:none"><path
         style="opacity:0.74359;fill:#ffffbf;fill-opacity:1;stroke:none"
         d="m 113.8021,473.6887 c -1.26396,-0.67037 -1.93896,-1.41065 -2.40935,-2.64236 -0.87784,-2.29857 0.0434,-4.71586 2.30511,-6.04865 0.87755,-0.51713 1.37371,-0.52917 21.80007,-0.52917 11.49615,0 21.22033,0.0893 21.6093,0.19836 1.72903,0.48496 3.39878,2.76177 3.38802,4.61975 -0.008,1.4282 -0.83211,3.05662 -1.99522,3.94386 l -1.00029,0.76303 -21.45195,0.0581 c -19.1779,0.0519 -21.53608,0.0135 -22.24569,-0.3629 z m 9.65729,-14.22533 c 0,-0.20622 0.4732,-4.81989 1.05156,-10.2526 0.57837,-5.43272 1.18169,-11.12782 1.34074,-12.65579 0.43749,-4.20318 0.38286,-4.05229 1.29629,-3.57993 4.90492,2.53643 11.45473,2.65947 16.74923,0.31463 l 1.5201,-0.67323 0.12491,0.5802 c 0.124,0.57602 2.788,25.73581 2.788,26.33095 0,0.23349 -3.09072,0.31071 -12.43541,0.31071 -10.55403,0 -12.43542,-0.0567 -12.43542,-0.37494 z m 14.47309,-7.55185 c 1.45338,-0.88617 1.72131,-1.76344 1.62186,-5.3103 -0.0815,-2.90834 -0.13372,-3.17527 -0.74912,-3.83315 -1.45207,-1.55231 -3.25836,-1.87288 -4.78951,-0.85 -1.41141,0.94288 -1.82418,2.0509 -1.82466,4.89801 -4.7e-4,2.81451 0.33412,3.85753 1.57141,4.89865 1.06282,0.8943 2.88503,0.9803 4.17002,0.19679 z m -5.66921,-21.84916 c -3.11639,-0.83936 -6.11521,-2.86418 -8.06103,-5.44284 -2.00625,-2.65874 -2.85172,-5.28498 -2.85638,-8.87261 -0.007,-5.09075 2.30994,-9.33824 6.61145,-12.12236 2.2685,-1.46828 3.46356,-1.90868 6.12268,-2.25633 7.15788,-0.93581 13.8416,3.49297 15.94028,10.56238 0.52293,1.76151 0.55833,5.71772 0.0676,7.56012 -1.75694,6.59684 -7.55098,11.0185 -14.36358,10.96143 -1.14317,-0.01 -2.70064,-0.18498 -3.46106,-0.38979 z m 6.58707,-6.62096 c 1.68979,-0.55891 3.47698,-2.20539 4.3718,-4.0276 0.63183,-1.28665 0.74032,-1.82735 0.72812,-3.62861 -0.0166,-2.44886 -0.68413,-4.06154 -2.38028,-5.75032 -1.64643,-1.63928 -3.06809,-2.18718 -5.67517,-2.18718 -2.56463,0 -3.87051,0.51017 -5.64526,2.20541 -1.70671,1.63027 -2.39347,3.26358 -2.4102,5.73209 -0.0122,1.8021 0.0962,2.34175 0.7294,3.6312 1.08987,2.21944 3.30919,3.9481 5.73856,4.46986 1.17742,0.25287 2.9618,0.0781 4.54303,-0.44485 z m -30.00121,-22.58118 c -5.04386,-4.30606 -9.174561,-7.88873 -9.179332,-7.96149 -0.0048,-0.0728 0.476832,-0.42995 1.070232,-0.79375 1.83058,-1.12229 4.09707,-3.78069 5.18739,-6.08436 0.54753,-1.15685 1.06323,-2.10659 1.14599,-2.11054 0.0828,-0.004 4.28785,3.53047 9.34463,7.85426 l 9.19414,7.86145 -0.74567,0.53305 c -2.3882,1.70723 -4.67104,4.35668 -6.07567,7.05138 l -0.77104,1.4792 z M 89.460432,389.90307 c -4.027384,-1.03081 -7.166286,-4.29477 -8.060291,-8.38143 -0.414893,-1.89654 -0.281393,-4.07381 0.255082,-4.16015 0.218282,-0.0351 1.944688,1.18121 3.836459,2.70298 1.891771,1.52178 3.508064,2.76984 3.591763,2.77348 0.16941,0.007 5.800945,-7.00161 5.800945,-7.21982 0,-0.0759 -1.607343,-1.41877 -3.571875,-2.98428 -1.964531,-1.56551 -3.571875,-2.95071 -3.571875,-3.07821 0,-0.55237 2.055391,-1.08664 4.233334,-1.10041 2.766117,-0.0175 4.449514,0.51325 6.563158,2.06923 2.875778,2.11703 4.433568,5.26843 4.389798,8.88052 -0.0564,4.65238 -2.67213,8.42522 -6.984206,10.07372 -1.790806,0.68462 -4.717028,0.87619 -6.482292,0.42437 z"
         id="path17" /><g
         id="g19"
         transform="translate(0.54980624,9.3467123)"><path
           style="fill:#894ffb"
           d="m 267.96663,656.54187 c -7.25309,-0.14802 -8.16484,-0.34233 -10.55608,-2.24967 -6.61564,-5.27687 -4.91111,-15.30002 3.14774,-18.50975 1.06185,-0.42292 13.57352,-0.68026 13.96651,-0.28726 0.10514,0.10513 0.10752,21.09889 0.002,21.14479 -0.0431,0.0188 -2.99531,-0.0254 -6.56057,-0.0981 z"
           id="path23" /><path
           style="fill:#0db7f4"
           d="m 282.59317,656.30042 c -7.98508,-2.03928 -10.79845,-12.13271 -4.9847,-17.88345 5.35796,-5.29988 14.72629,-3.3548 17.36714,3.60581 3.00807,7.9285 -4.29054,16.34421 -12.38244,14.27764 z"
           id="path22" /><path
           style="fill:#fc7034"
           d="m 274.5239,624.90771 0.075,-10.46775 -6.68957,0.0827 c -15.67244,0.19381 -20.7596,15.62005 -6.61651,20.06382 1.27789,0.40152 1.38568,0.47961 0.69009,0.49998 -8.52445,0.24957 -11.56126,-13.56348 -4.21399,-19.16751 3.24352,-2.47396 27.09033,-3.07799 32.04081,-0.81158 6.46057,2.95774 7.90467,12.08481 2.7123,17.14234 -2.70183,2.63167 -4.67466,3.07063 -13.97206,3.10885 l -4.10104,0.0169 z"
           id="path21" /><path
           style="fill:#fd3635"
           d="m 262.82736,635.14316 c -0.0789,-0.12762 -0.69721,-0.37149 -1.37409,-0.54193 -14.3991,-3.62573 -9.1782,-19.88515 6.44721,-20.07847 l 6.68073,-0.0827 v 10.04904 c 0,5.52697 -0.0723,10.23737 -0.1606,10.46755 -0.18063,0.47072 -11.30696,0.64969 -11.59325,0.18647 z"
           id="path20" /><path
           style="fill:#22ca70"
           d="m 262.38473,677.69085 c -15.83602,-2.32854 -10.87256,-21.01669 5.5819,-21.01669 h 6.48229 l 0.0795,5.42396 c 0.1516,10.33685 -4.36374,17.12798 -10.53058,15.83815 -0.0728,-0.0152 -0.79868,-0.12566 -1.61315,-0.24542 z"
           id="path19" /></g></g></g></svg>
